<!-- public/preset-previews/board-pack.svg -->
<svg xmlns="http://www.w3.org/2000/svg" viewBox="0 0 320 180" width="320" height="180">
  <rect width="320" height="180" fill="#f5f1e8"/>
  <!-- top bar + rule -->
  <rect x="12" y="10" width="14" height="8" fill="#141414"/>
  <text x="32" y="18" font-family="sans-serif" font-size="7" fill="#141414" letter-spacing="1">Q3 REVENUE · BOARD PACK</text>
  <text x="272" y="18" font-family="sans-serif" font-size="6" fill="#141414" letter-spacing="1">LIVE</text>
  <line x1="12" y1="24" x2="308" y2="24" stroke="#141414" stroke-opacity="0.18" stroke-width="0.6"/>
  <!-- hero -->
  <text x="12"  y="40" font-family="sans-serif" font-size="5" fill="#141414" letter-spacing="1">NET NEW MRR</text>
  <text x="12"  y="74" font-family="sans-serif" font-size="28" font-weight="800" fill="#141414">+$478K</text>
  <text x="12"  y="88" font-family="serif"     font-size="5" fill="#141414">Q3 expansion carried the quarter.</text>
  <text x="12"  y="96" font-family="serif"     font-size="5" fill="#c83e3e">Watch: one pilot at risk.</text>
  <!-- KPI list -->
  <g font-family="sans-serif" font-size="5" fill="#141414">
    <line x1="168" y1="34" x2="308" y2="34" stroke="#141414" stroke-opacity="0.18" stroke-width="0.4"/>
    <text x="168" y="42">MRR</text>     <text x="292" y="42" text-anchor="end">$2.94M</text>
    <line x1="168" y1="46" x2="308" y2="46" stroke="#141414" stroke-opacity="0.18" stroke-width="0.4"/>
    <text x="168" y="54">ARR</text>     <text x="292" y="54" text-anchor="end">$35.3M</text>
    <line x1="168" y1="58" x2="308" y2="58" stroke="#141414" stroke-opacity="0.18" stroke-width="0.4"/>
    <text x="168" y="66">CHURN</text>   <text x="292" y="66" text-anchor="end">2.1%</text>
    <line x1="168" y1="70" x2="308" y2="70" stroke="#141414" stroke-opacity="0.18" stroke-width="0.4"/>
    <text x="168" y="78">LTV:CAC</text> <text x="292" y="78" text-anchor="end">4.8x</text>
    <line x1="168" y1="82" x2="308" y2="82" stroke="#141414" stroke-opacity="0.18" stroke-width="0.4"/>
    <text x="168" y="90">PAYBACK</text> <text x="292" y="90" text-anchor="end">11.2mo</text>
    <line x1="168" y1="94" x2="308" y2="94" stroke="#141414" stroke-opacity="0.18" stroke-width="0.4"/>
  </g>
  <!-- revenue line + dashed forecast -->
  <polyline points="12,130 30,126 48,122 66,118 84,114 102,108 120,102 138,94 156,84 174,78 192,72 210,66"
            fill="none" stroke="#141414" stroke-width="1.2"/>
  <polyline points="210,66 224,60 238,54" fill="none" stroke="#141414" stroke-width="1" stroke-dasharray="2 2"/>
  <circle cx="210" cy="66" r="1.6" fill="#141414"/>
  <!-- top accounts -->
  <g font-family="sans-serif" font-size="4.5" fill="#141414">
    <text x="230" y="108">1 Meridian</text>    <text x="306" y="108" text-anchor="end">$318K</text>
    <text x="230" y="116">2 Northwind</text>   <text x="306" y="116" text-anchor="end">$276K</text>
    <text x="230" y="124">3 Halcyon</text>     <text x="306" y="124" text-anchor="end">$241K</text>
    <text x="230" y="132">4 Ferro &amp; Pike</text><text x="306" y="132" text-anchor="end">$214K</text>
    <text x="230" y="140">5 Clearwater</text>  <text x="306" y="140" text-anchor="end">$156K</text>
  </g>
  <!-- bottom strip rule -->
  <line x1="12" y1="150" x2="308" y2="150" stroke="#141414" stroke-opacity="0.18" stroke-width="0.6"/>
  <!-- micro-cards: histogram | bars | watch -->
  <g fill="#141414">
    <rect x="18"  y="160" width="4" height="10"/>
    <rect x="26"  y="158" width="4" height="12"/>
    <rect x="34"  y="156" width="4" height="14"/>
    <rect x="42"  y="160" width="4" height="10"/>
    <rect x="50"  y="164" width="4" height="6"/>
  </g>
  <g fill="#141414">
    <rect x="118" y="160" width="4" height="10"/>
    <rect x="126" y="158" width="4" height="12"/>
    <rect x="134" y="156" width="4" height="14"/>
    <rect x="142" y="155" width="4" height="15"/>
    <rect x="150" y="154" width="4" height="16"/>
    <rect x="158" y="153" width="4" height="17"/>
  </g>
  <text x="220" y="162" font-family="sans-serif" font-size="5" fill="#c83e3e">Watch:</text>
  <text x="220" y="170" font-family="sans-serif" font-size="4.5" fill="#141414">churn in 91–180d band</text>
</svg>
